<?xml version="1.0" encoding="utf-8"?>
<!-- Generator: Adobe Illustrator 18.0.0, SVG Export Plug-In . SVG Version: 6.00 Build 0)  -->
<!DOCTYPE svg PUBLIC "-//W3C//DTD SVG 1.1//EN" "http://www.w3.org/Graphics/SVG/1.1/DTD/svg11.dtd">
<svg version="1.1" id="Capa_1" xmlns="http://www.w3.org/2000/svg" xmlns:xlink="http://www.w3.org/1999/xlink" x="0px" y="0px"
	 viewBox="0 0 612 792" enable-background="new 0 0 612 792" xml:space="preserve">
<path fill="#842507" d="M603.9,578.8L358,153.1c-10.9-18.8-30.3-30.1-52-30.1c-21.7,0-41.2,11.2-52,30.1L8.1,578.8
	c-10.9,18.8-10.9,41.3,0,60.1C19,657.7,38.5,669,60.2,669h491.6c21.7,0,41.2-11.2,52-30C614.7,620.1,614.7,597.6,603.9,578.8z
	 M306,599.7c-21.6,0-39.1-17.5-39.1-39.1c0-21.6,17.5-39.1,39.1-39.1c21.6,0,39.1,17.5,39.1,39.1C345.1,582.2,327.6,599.7,306,599.7
	z M345.4,432.5c0,21.7-17.7,39.4-39.4,39.4s-39.4-17.7-39.4-39.4V251.7c0-10.3,8.4-18.7,18.7-18.7h41.5c10.3,0,18.7,8.4,18.7,18.7
	L345.4,432.5L345.4,432.5z"/>
</svg>
